<svg xmlns="http://www.w3.org/2000/svg" width="96" height="96" viewBox="0 0 96 96.000001"><g color="#000"><path overflow="visible" fill="none" d="M96 0v96H0V0z"/><path d="M48 4.137L4.568 48.602l2.862 2.794 8.558-8.76V88H68V63.38c0-1.682-.16-3.22-.477-4.618-.317-1.397-.872-2.586-1.666-3.57-.76-1.016-1.794-1.795-3.095-2.335-1.302-.57-2.936-.857-4.905-.857-2.19 0-4.128.142-5.81.428-1.683.286-3.03.557-4.047.81v31.725H19.027V39.522l28.97-29.66 28.974 29.663V82H77v6h3.012V42.637l8.556 8.76L91.43 48.6 48 4.137zM68 20l12.012 12V20H68z" overflow="visible" fill="#333333"/></g></svg>