<?xml version="1.0" encoding="UTF-8"?>
<svg width="14px" height="14px" viewBox="0 0 14 14" version="1.1" xmlns="http://www.w3.org/2000/svg" xmlns:xlink="http://www.w3.org/1999/xlink">
    <!-- Generator: Sketch Beta 42 (36679) - http://www.bohemiancoding.com/sketch -->
    <title>Group</title>
    <desc>Created with Sketch Beta.</desc>
    <defs></defs>
    <g id="Store-detail-lime-****" stroke="none" stroke-width="1" fill="none" fill-rule="evenodd">
        <g id="XX-Snapweb-snap-detail-purchase-login-1440" transform="translate(-435.000000, -497.000000)">
            <g id="login-form" transform="translate(228.000000, 324.000000)">
                <g id="new-user" transform="translate(0.000000, 171.000000)">
                    <g id="Group" transform="translate(206.000000, 1.000000)">
                        <path d="M0,0 L16,0 L16,16 L0,16 L0,0 Z" id="Combined-Shape"></path>
                        <path d="M10.9449195,6.84060114 L7.47048933,10.315668 L5.68542225,8.52986123 L9.15923292,5.05380785 C8.16638298,4.01183497 7.38842421,3.09938854 7.43210079,2.92382253 L7.43311101,2.92281189 C7.54423573,2.47206495 14.6188394,0.703439073 14.9572647,1.04301524 C15.29569,1.38057012 13.5267865,8.45608426 13.0752161,8.56927632 C12.8992711,8.61337924 11.9867232,7.83450174 10.9449195,6.84060114 Z M5.84907865,2.06679696 L5.84907865,2.06780761 L5.84907865,3.68483698 C2.65070719,3.70302856 2.61635955,3.88696565 2.61635955,5.83750733 L2.61635955,11.2292896 C2.61635955,13.3839813 2.61635955,13.3839813 6.9259782,13.3839813 L8.00388798,13.3839813 C12.3145169,13.3839813 12.3145169,13.3839813 12.3145169,11.228279 L12.3145169,10.1489119 L13.9308764,10.1489119 L13.9308764,11.7659413 C13.9308764,15 13.3914164,15 8.54233775,15 L6.38752843,15 C1.53844978,15 1,15 1,11.7659413 L1,5.29782377 C1,2.1981806 1.53844978,2.07387147 5.84907865,2.06679696 Z" id="Combined-Shape" fill="#FF7301"></path>
                    </g>
                </g>
            </g>
        </g>
    </g>
</svg>