<svg xmlns="http://www.w3.org/2000/svg" viewBox="0 0 96 96.000001" height="96" width="96"><g color="#000"><path overflow="visible" fill="none" d="M96 0v96H0V0z"/><path d="M79.197 66.033c9.916-17.19 3.984-39.246-13.223-49.19C48.767 6.9 26.72 12.786 16.804 29.977c-9.915 17.19-3.985 39.245 13.222 49.19 17.207 9.943 39.255 4.057 49.17-13.134zm-3.465-2.002c-8.834 15.317-28.37 20.536-43.708 11.672-15.338-8.864-20.59-28.408-11.756-43.724 8.834-15.316 28.37-20.535 43.708-11.67 15.338 8.863 20.59 28.407 11.756 43.723z" style="line-height:normal;font-variant-ligatures:none;font-variant-position:normal;font-variant-caps:normal;font-variant-numeric:normal;font-variant-alternates:normal;font-feature-settings:normal;text-indent:0;text-align:start;text-decoration-line:none;text-decoration-style:solid;text-decoration-color:#000;text-transform:none;block-progression:tb;shape-padding:0;isolation:auto;mix-blend-mode:normal" font-weight="400" font-family="sans-serif" white-space="normal" overflow="visible" fill="#333333"/><path d="M54.902 5.582L41.098 7.645v7.097a34.033 33.97 43.146 0 1 13.804.028V5.582zm-28.246 6.244L16.14 20.768l5.18 6.175a34.033 33.97 43.146 0 1 10.58-8.867l-5.244-6.25zm42.63.067L64.08 18.1a34.033 33.97 43.146 0 1 .895.474 34.033 33.97 43.146 0 1 9.673 8.406l5.272-6.28-10.633-8.807zM8.4 34.008l-2.31 13.61 7.947 1.403a34.033 33.97 43.146 0 1 2.387-13.596l-8.024-1.416zm79.118.015l-7.987 1.41a34.033 33.97 43.146 0 1 2.43 13.587L90 47.604l-2.484-13.58zM15.758 58.645L8.67 62.738h-.002l6.98 11.91 7.018-4.05a34.033 33.97 43.146 0 1-6.908-11.953zm64.512.015a34.033 33.97 43.146 0 1-2.805 6.37 34.033 33.97 43.146 0 1-4.06 5.61l7.023 4.053 6.826-12-6.984-4.033zM30.148 76.867l-2.804 7.703 13.004 4.64 2.757-7.58a34.033 33.97 43.146 0 1-12.08-4.196 34.033 33.97 43.146 0 1-.877-.567zm35.733.08a34.033 33.97 43.146 0 1-12.978 4.707l2.782 7.64 12.94-4.808-2.743-7.54z" overflow="visible" fill="#333333"/><path d="M68.805 60.027c6.61-11.46 2.652-26.178-8.816-32.806-11.47-6.627-26.186-2.7-32.796 8.76-6.61 11.46-2.65 26.182 8.817 32.81 11.47 6.627 26.185 2.696 32.795-8.763zm-3.463-2C59.814 67.61 47.61 70.87 38.01 65.323c-9.6-5.548-12.88-17.757-7.35-27.34 5.527-9.586 17.73-12.847 27.33-7.3 9.6 5.548 12.88 17.758 7.352 27.342z" style="line-height:normal;font-variant-ligatures:none;font-variant-position:normal;font-variant-caps:normal;font-variant-numeric:normal;font-variant-alternates:normal;font-feature-settings:normal;text-indent:0;text-align:start;text-decoration-line:none;text-decoration-style:solid;text-decoration-color:#000;text-transform:none;block-progression:tb;shape-padding:0;isolation:auto;mix-blend-mode:normal" font-weight="400" font-family="sans-serif" white-space="normal" overflow="visible" fill="#333333"/></g></svg>
