<?xml version="1.0" encoding="UTF-8" standalone="no"?>
<svg width="107px" height="25px" viewBox="0 0 107 25" version="1.1" xmlns="http://www.w3.org/2000/svg" xmlns:xlink="http://www.w3.org/1999/xlink">
    <!-- Generator: Sketch 41.2 (35397) - http://www.bohemiancoding.com/sketch -->
    <title>logo</title>
    <desc>Created with Sketch.</desc>
    <defs></defs>
    <g id="Symbols" stroke="none" stroke-width="1" fill="none" fill-rule="evenodd">
        <g id="footer-1440" transform="translate(-1313.000000, -39.000000)">
            <g id="footer">
                <g id="logo" transform="translate(1313.000000, 39.000000)">
                    <ellipse id="Oval" fill="#DD4814" cx="100.534687" cy="6.39826121" rx="6.39826121" ry="6.39826121"></ellipse>
                    <path d="M96.1841069,5.54381398 C95.7120646,5.54381398 95.3296596,5.926219 95.3296596,6.39826121 C95.3296596,6.87002111 95.7120646,7.25242612 96.1841069,7.25242612 C96.6560079,7.25242612 97.0384129,6.87002111 97.0384129,6.39826121 C97.0382718,5.926219 96.6558668,5.54381398 96.1841069,5.54381398 L96.1841069,5.54381398 Z M102.283248,9.42630475 C101.874587,9.66232586 101.734555,10.1844802 101.970577,10.5928588 C102.206315,11.0015198 102.72847,11.1415515 103.137272,10.9055303 C103.545933,10.6697916 103.685964,10.1476372 103.449943,9.73897625 C103.214063,9.33073879 102.691627,9.19056596 102.283248,9.42630475 L102.283248,9.42630475 Z M98.0396675,6.39826121 C98.0396675,5.55411873 98.4590567,4.80822427 99.1006332,4.3566504 L98.4761372,3.31064776 C97.72869,3.81021636 97.1727982,4.57361478 96.9415765,5.46772823 C97.2111939,5.68779815 97.3838338,6.02277309 97.3838338,6.39826121 C97.3838338,6.77346702 97.2111939,7.10844195 96.9415765,7.32851187 C97.1725158,8.22290765 97.7284077,8.98630607 98.4761372,9.48587467 L99.1006332,8.43958971 C98.4589156,7.98829815 98.0396675,7.24254485 98.0396675,6.39826121 L98.0396675,6.39826121 Z M100.534687,3.90281794 C101.838168,3.90281794 102.907885,4.90223747 103.019826,6.17677968 L104.237057,6.15885224 C104.177063,5.21787335 103.766003,4.37316623 103.134307,3.75191689 C102.809496,3.87458575 102.43429,3.85581135 102.110044,3.66891425 C101.785232,3.48145251 101.581537,3.16525198 101.525778,2.82194855 C101.210142,2.73485224 100.87785,2.68713984 100.534405,2.68713984 C99.9437876,2.68713984 99.385496,2.82575989 98.8898799,3.07123879 L99.4834617,4.13488654 C99.8030501,3.98638522 100.159199,3.90281794 100.534687,3.90281794 L100.534687,3.90281794 Z M100.534687,8.89342216 C100.159199,8.89342216 99.802909,8.80985488 99.4837441,8.6612124 L98.8903034,9.72486016 C99.3860607,9.97048021 99.9443522,10.1092414 100.534687,10.1092414 C100.878414,10.1092414 101.210425,10.061529 101.526061,9.9741504 C101.581819,9.63084697 101.785515,9.31492876 102.110326,9.1271847 C102.434855,8.94000528 102.809778,8.92151319 103.13459,9.04418206 C103.766426,8.42307388 104.177346,7.57822559 104.237339,6.6372467 L103.019826,6.61931926 C102.907744,7.89428496 101.838309,8.89342216 100.534687,8.89342216 L100.534687,8.89342216 Z M102.282966,3.36965303 C102.691768,3.60567414 103.213922,3.4659248 103.449661,3.05726385 C103.685682,2.6486029 103.545933,2.12644855 103.137272,1.89042744 C102.72847,1.65468865 102.206315,1.79472032 101.970294,2.20338127 C101.734555,2.61175989 101.874728,3.13391425 102.282966,3.36965303 L102.282966,3.36965303 Z" id="Shape" fill="#FFFFFF"></path>
                    <path d="M12.7963813,23.3858377 C12.1463351,23.5485963 11.2882177,23.721095 10.222029,23.9037573 C9.15541689,24.086843 7.92167018,24.1778918 6.51994195,24.1778918 C5.30129947,24.1778918 4.27548285,23.9998879 3.44277441,23.6451504 C2.60964248,23.2898483 1.93941029,22.7868918 1.43193668,22.1367045 C0.923898417,21.4867995 0.558432718,20.719872 0.335116095,19.8362045 C0.111375989,18.9528193 8.8817842e-16,17.9733034 8.8817842e-16,16.8963865 L8.8817842e-16,8 L2.83338259,8 L2.83338259,16.2871359 C2.83338259,18.2170884 3.13800792,19.598066 3.74768206,20.4307744 C4.35693272,21.2639063 5.38246702,21.68019 6.8248496,21.68019 C7.12947493,21.68019 7.44412269,21.6701675 7.76935752,21.6494169 C8.0940277,21.6295132 8.39865303,21.6038219 8.68337467,21.5733311 C8.96753166,21.5428404 9.22656201,21.5123496 9.46032454,21.4821412 C9.69352243,21.4517916 9.86108047,21.4165013 9.96313984,21.3757058 L9.96313984,8 L12.7965224,8 L12.7963813,23.3858377 L12.7963813,23.3858377 L12.7963813,23.3858377 Z" id="Shape" fill="#333333"></path>
                    <path d="M19.7367005,8.50141821 C20.0818391,8.27824274 20.6049815,8.04448021 21.3057045,7.80083641 C22.0064274,7.55691029 22.8138681,7.43522955 23.7278852,7.43522955 C24.865219,7.43522955 25.8757902,7.638219 26.7594578,8.04433905 C27.6429842,8.45088259 28.3894433,9.01933773 28.9986939,9.75069261 C29.6080858,10.4819063 30.0698232,11.3554103 30.3850356,12.3709222 C30.6996834,13.3867164 30.8573602,14.5034406 30.8573602,15.7220831 C30.8573602,17.0018483 30.6691926,18.1548509 30.2937045,19.1805264 C29.9176517,20.2062018 29.384628,21.0744828 28.6940686,21.7852282 C28.0032269,22.4965383 27.1706596,23.0448074 26.1958021,23.4304591 C25.2209446,23.8159697 24.1239828,24.0093602 22.9051992,24.0093602 C21.5846385,24.0093602 20.4169551,23.9181702 19.4014433,23.7352256 C18.3856491,23.5524222 17.5529406,23.3699011 16.9031768,23.1868153 L16.9031768,0.488275726 L19.7367005,0.000988126649 L19.7367005,8.50141821 L19.7367005,8.50141821 Z M19.7367005,21.1761187 C20.0209987,21.2572863 20.4221781,21.333372 20.9402388,21.4042348 C21.4581583,21.4758034 22.102558,21.5110937 22.8748496,21.5110937 C24.3982586,21.5110937 25.6169011,21.0082784 26.530777,20.0029301 C27.4449354,18.9972995 27.9018734,17.5707269 27.9018734,15.721942 C27.9018734,14.9101253 27.8205646,14.1484208 27.6580884,13.4369697 C27.4953298,12.7262243 27.2316412,12.1117507 26.8660343,11.59369 C26.5004274,11.0756293 26.0281029,10.6695092 25.4492018,10.3747652 C24.8703008,10.0805858 24.1743773,9.93307256 23.3622784,9.93307256 C22.5899868,9.93307256 21.8792414,10.0654815 21.2296187,10.3291702 C20.5792902,10.5934235 20.0818391,10.8676992 19.7367005,11.151715 L19.7367005,21.1761187 L19.7367005,21.1761187 L19.7367005,21.1761187 Z" id="Shape" fill="#333333"></path>
                    <path d="M46.6696451,23.1866741 C46.0194578,23.3494327 45.1614815,23.5219314 44.0952929,23.7045937 C43.0286807,23.8876794 41.794934,23.9787282 40.393347,23.9787282 C39.1745633,23.9787282 38.1488879,23.8007243 37.3160383,23.4459868 C36.4829063,23.0906847 35.8126741,22.5877282 35.3052005,21.9375409 C34.7971623,21.2876359 34.4316966,20.5207084 34.2083799,19.6370409 C33.9846398,18.7533734 33.8731227,17.7739987 33.8731227,16.6970818 L33.8731227,7.80083641 L36.7065053,7.80083641 L36.7065053,16.0879723 C36.7065053,18.0179248 37.0111306,19.3989024 37.6206636,20.2316108 C38.2297731,21.0647427 39.2554485,21.4810264 40.6978311,21.4810264 C41.0024565,21.4810264 41.3172454,21.471004 41.6423391,21.4502533 C41.9670092,21.4303496 42.2716346,21.4046583 42.5563562,21.3741675 C42.8405132,21.3436768 43.0995435,21.313186 43.3333061,21.2829776 C43.566504,21.252628 43.7342032,21.2173377 43.8361214,21.1765422 L43.8361214,7.80083641 L46.669504,7.80083641 L46.6696451,23.1866741 L46.6696451,23.1866741 L46.6696451,23.1866741 Z" id="Shape" fill="#333333"></path>
                    <path d="M50.7517375,8.25777441 C51.4016425,8.09529815 52.2647005,7.92251715 53.3417586,7.73957256 C54.4181108,7.55691029 55.6569393,7.46557916 57.0583852,7.46557916 C58.3178232,7.46557916 59.3635435,7.64358311 60.1966755,7.9986029 C61.0291016,8.3543285 61.694252,8.85163852 62.1922678,9.49152111 C62.6895778,10.1314037 63.0400805,10.8984723 63.2434934,11.7918799 C63.4462005,12.6858522 63.5481187,13.6710145 63.5481187,14.7475079 L63.5481187,23.6437533 L60.7144538,23.6437533 L60.7144538,15.3564763 C60.7144538,14.3817599 60.6482493,13.5491926 60.5165462,12.8583509 C60.3841372,12.1680739 60.1666082,11.6092177 59.8614182,11.1827704 C59.5567929,10.7560409 59.1503905,10.4464749 58.6427757,10.2533668 C58.1344551,10.0603997 57.5047361,9.96384565 56.7539011,9.96384565 C56.4489934,9.96384565 56.1336398,9.97429156 55.8093931,9.99433641 C55.4841583,10.0148047 55.17431,10.0402137 54.8801306,10.0707045 C54.5852454,10.1010541 54.3211332,10.136909 54.0882177,10.177281 C53.8544551,10.2182177 53.6866148,10.2487084 53.5854024,10.268471 L53.5854024,23.6436121 L50.7518786,23.6436121 L50.7518786,8.25777441 L50.7517375,8.25777441 L50.7517375,8.25777441 Z" id="Shape" fill="#333333"></path>
                    <path d="M70.0984103,7.80083641 L76.100715,7.80083641 L76.100715,10.177281 L70.0984103,10.177281 L70.0984103,17.489277 C70.0984103,18.28119 70.1592507,18.9364591 70.2812137,19.4542375 C70.4030356,19.9725805 70.5858391,20.3788417 70.8297652,20.6731623 C71.0735501,20.9679063 71.3781755,21.1759776 71.7437823,21.2977995 C72.1093892,21.4196214 72.5358364,21.4807441 73.0232652,21.4807441 C73.8964868,21.4807441 74.5873285,21.3844723 75.0952256,21.191223 C75.602558,20.9983971 75.9482612,20.8613298 76.1310646,20.7800211 L76.7403153,23.0954842 C76.4555937,23.2377744 75.9529195,23.420719 75.2320106,23.6437533 C74.5109604,23.8670699 73.6937797,23.9788694 72.7793391,23.9788694 C71.7027045,23.9788694 70.8143786,23.8418021 70.1135145,23.5676675 C69.4126504,23.293533 68.8491359,22.88219 68.4225475,22.3337797 C67.9961003,21.7852282 67.6961332,21.1101966 67.5239169,20.3075554 C67.3508536,19.5054789 67.2647454,18.5763575 67.2647454,17.519909 L67.2647454,3.38292216 L70.0982691,2.8954934 L70.0984103,7.80083641 L70.0984103,7.80083641 L70.0984103,7.80083641 Z" id="Shape" fill="#333333"></path>
                    <path d="M91.5169024,23.1866741 C90.8665739,23.3494327 90.0084565,23.5219314 88.942409,23.7045937 C87.875938,23.8876794 86.6421913,23.9787282 85.2404631,23.9787282 C84.0218206,23.9787282 82.996004,23.8007243 82.1632955,23.4459868 C81.3301636,23.0906847 80.6599314,22.5877282 80.1523166,21.9375409 C79.6442784,21.2876359 79.2788127,20.5207084 79.0553549,19.6370409 C78.8314736,18.7533734 78.7200976,17.7739987 78.7200976,16.6970818 L78.7200976,7.80083641 L81.5537625,7.80083641 L81.5537625,16.0879723 C81.5537625,18.0179248 81.8583879,19.3989024 82.4677797,20.2316108 C83.0770303,21.0647427 84.1024235,21.4810264 85.5450884,21.4810264 C85.8495726,21.4810264 86.1643615,21.471004 86.4894551,21.4502533 C86.8139842,21.4303496 87.1188918,21.4046583 87.4036135,21.3741675 C87.6879116,21.3436768 87.9468008,21.313186 88.1805633,21.2829776 C88.4136201,21.252628 88.5814604,21.2173377 88.6832375,21.1765422 L88.6832375,7.80083641 L91.5169024,7.80083641 L91.5169024,23.1866741 L91.5169024,23.1866741 L91.5169024,23.1866741 Z" id="Shape" fill="#333333"></path>
                </g>
            </g>
        </g>
    </g>
</svg>